{
	"asset":{
		"generator":"Khronos glTF Blender I/O v3.5.30",
		"version":"2.0"
	},
	"scene":0,
	"scenes":[
		{
			"name":"Scene",
			"nodes":[
				0,
				1,
				2
			]
		}
	],
	"nodes":[
		{
			"mesh":0,
			"name":"face",
			"translation":[
				0.005770641379058361,
				0.05054851248860359,
				0
			]
		},
		{
			"name":"BezierCurve"
		},
		{
			"mesh":1,
			"name":"tail",
			"rotation":[
				-0.2802417278289795,
				0,
				0,
				0.9599294662475586
			],
			"scale":[
				0.15830346941947937,
				0.45800265669822693,
				0.130711629986763
			],
			"translation":[
				0,
				-1.3360559940338135,
				-0.9155890345573425
			]
		}
	],
	"materials":[
		{
			"doubleSided":true,
			"name":"Material.003",
			"pbrMetallicRoughness":{
				"baseColorFactor":[
					0.8000000715255737,
					0.6891200542449951,
					0.29600003361701965,
					1
				],
				"metallicFactor":0,
				"roughnessFactor":0.5
			}
		},
		{
			"doubleSided":true,
			"name":"Material.010",
			"pbrMetallicRoughness":{
				"baseColorFactor":[
					0.004885626491159201,
					0.0031920161563903093,
					0.000443354801973328,
					1
				],
				"metallicFactor":0,
				"roughnessFactor":0.5
			}
		},
		{
			"doubleSided":true,
			"name":"Material.009",
			"pbrMetallicRoughness":{
				"baseColorFactor":[
					0.006417224649339914,
					0.0032562012784183025,
					0.0013041893253102899,
					1
				],
				"metallicFactor":0,
				"roughnessFactor":0.5
			}
		},
		{
			"doubleSided":true,
			"name":"Material.005",
			"pbrMetallicRoughness":{
				"baseColorFactor":[
					0.8000000715255737,
					0.6891200542449951,
					0.29600003361701965,
					1
				],
				"metallicFactor":0,
				"roughnessFactor":0.5
			}
		},
		{
			"doubleSided":true,
			"name":"Material.008",
			"pbrMetallicRoughness":{
				"baseColorFactor":[
					0.008847973309457302,
					0.004543718881905079,
					0.0006108219386078417,
					1
				],
				"metallicFactor":0,
				"roughnessFactor":0.5
			}
		},
		{
			"doubleSided":true,
			"name":"Material.012",
			"pbrMetallicRoughness":{
				"baseColorFactor":[
					0.8000000715255737,
					0.3487856388092041,
					0.25360649824142456,
					1
				],
				"metallicFactor":0,
				"roughnessFactor":0.5
			}
		},
		{
			"doubleSided":true,
			"name":"Material.011",
			"pbrMetallicRoughness":{
				"baseColorFactor":[
					0.8000000715255737,
					0.6891199946403503,
					0.2959999740123749,
					1
				],
				"metallicFactor":0,
				"roughnessFactor":0.5
			}
		},
		{
			"doubleSided":true,
			"name":"Material.004",
			"pbrMetallicRoughness":{
				"baseColorFactor":[
					0.8000000715255737,
					0.7508531212806702,
					0.3481728136539459,
					1
				],
				"metallicFactor":0,
				"roughnessFactor":0.5
			}
		},
		{
			"doubleSided":true,
			"name":"Material.006",
			"pbrMetallicRoughness":{
				"baseColorFactor":[
					0.8000000715255737,
					0.6891201138496399,
					0.29600003361701965,
					1
				],
				"metallicFactor":0,
				"roughnessFactor":0.5
			}
		},
		{
			"doubleSided":true,
			"name":"Material.007",
			"pbrMetallicRoughness":{
				"baseColorFactor":[
					0.8000000715255737,
					0.6891200542449951,
					0.29600003361701965,
					1
				],
				"metallicFactor":0,
				"roughnessFactor":0.5
			}
		}
	],
	"meshes":[
		{
			"name":"Sphere",
			"primitives":[
				{
					"attributes":{
						"COLOR_0":0,
						"POSITION":1,
						"TEXCOORD_0":2,
						"NORMAL":3
					},
					"indices":4,
					"material":0
				},
				{
					"attributes":{
						"COLOR_0":5,
						"POSITION":6,
						"TEXCOORD_0":7,
						"NORMAL":8
					},
					"indices":9,
					"material":1
				},
				{
					"attributes":{
						"COLOR_0":10,
						"POSITION":11,
						"TEXCOORD_0":12,
						"NORMAL":13
					},
					"indices":14,
					"material":2
				},
				{
					"attributes":{
						"COLOR_0":15,
						"POSITION":16,
						"TEXCOORD_0":17,
						"NORMAL":18
					},
					"indices":19,
					"material":3
				},
				{
					"attributes":{
						"COLOR_0":20,
						"POSITION":21,
						"TEXCOORD_0":22,
						"NORMAL":23
					},
					"indices":24,
					"material":4
				},
				{
					"attributes":{
						"COLOR_0":25,
						"POSITION":26,
						"TEXCOORD_0":27,
						"NORMAL":28
					},
					"indices":29,
					"material":5
				}
			]
		},
		{
			"name":"Sphere.005",
			"primitives":[
				{
					"attributes":{
						"POSITION":30,
						"TEXCOORD_0":31,
						"NORMAL":32
					},
					"indices":33,
					"material":6
				},
				{
					"attributes":{
						"POSITION":34,
						"TEXCOORD_0":35,
						"NORMAL":36
					},
					"indices":37,
					"material":7
				},
				{
					"attributes":{
						"POSITION":38,
						"TEXCOORD_0":39,
						"NORMAL":40
					},
					"indices":41,
					"material":8
				},
				{
					"attributes":{
						"POSITION":42,
						"TEXCOORD_0":43,
						"NORMAL":44
					},
					"indices":45,
					"material":9
				}
			]
		}
	],
	"accessors":[
		{
			"bufferView":0,
			"componentType":5123,
			"count":10313,
			"normalized":true,
			"type":"VEC4"
		},
		{
			"bufferView":1,
			"componentType":5126,
			"count":10313,
			"max":[
				0.9604646563529968,
				0.9154937863349915,
				0.9853809475898743
			],
			"min":[
				-0.9599424004554749,
				-0.8007422089576721,
				-0.9853813052177429
			],
			"type":"VEC3"
		},
		{
			"bufferView":2,
			"componentType":5126,
			"count":10313,
			"type":"VEC2"
		},
		{
			"bufferView":3,
			"componentType":5126,
			"count":10313,
			"type":"VEC3"
		},
		{
			"bufferView":4,
			"componentType":5123,
			"count":59904,
			"type":"SCALAR"
		},
		{
			"bufferView":5,
			"componentType":5123,
			"count":89,
			"normalized":true,
			"type":"VEC4"
		},
		{
			"bufferView":6,
			"componentType":5126,
			"count":89,
			"max":[
				0.07378122210502625,
				-0.07750877737998962,
				0.9995625615119934
			],
			"min":[
				-0.04947212338447571,
				-0.12271532416343689,
				0.9624095559120178
			],
			"type":"VEC3"
		},
		{
			"bufferView":7,
			"componentType":5126,
			"count":89,
			"type":"VEC2"
		},
		{
			"bufferView":8,
			"componentType":5126,
			"count":89,
			"type":"VEC3"
		},
		{
			"bufferView":9,
			"componentType":5123,
			"count":480,
			"type":"SCALAR"
		},
		{
			"bufferView":10,
			"componentType":5123,
			"count":768,
			"normalized":true,
			"type":"VEC4"
		},
		{
			"bufferView":11,
			"componentType":5126,
			"count":768,
			"max":[
				0.32883861660957336,
				0.26744526624679565,
				0.8298326134681702
			],
			"min":[
				-0.3288385272026062,
				0.16256961226463318,
				0.7797063589096069
			],
			"type":"VEC3"
		},
		{
			"bufferView":12,
			"componentType":5126,
			"count":768,
			"type":"VEC2"
		},
		{
			"bufferView":13,
			"componentType":5126,
			"count":768,
			"type":"VEC3"
		},
		{
			"bufferView":14,
			"componentType":5123,
			"count":1152,
			"type":"SCALAR"
		},
		{
			"bufferView":15,
			"componentType":5123,
			"count":524,
			"normalized":true,
			"type":"VEC4"
		},
		{
			"bufferView":16,
			"componentType":5126,
			"count":524,
			"max":[
				1.3202667236328125,
				0.7871654629707336,
				0.3703216016292572
			],
			"min":[
				-1.3202664852142334,
				-0.14804452657699585,
				-0.3703215718269348
			],
			"type":"VEC3"
		},
		{
			"bufferView":17,
			"componentType":5126,
			"count":524,
			"type":"VEC2"
		},
		{
			"bufferView":18,
			"componentType":5126,
			"count":524,
			"type":"VEC3"
		},
		{
			"bufferView":19,
			"componentType":5123,
			"count":2736,
			"type":"SCALAR"
		},
		{
			"bufferView":20,
			"componentType":5123,
			"count":768,
			"normalized":true,
			"type":"VEC4"
		},
		{
			"bufferView":21,
			"componentType":5126,
			"count":768,
			"max":[
				0.36698704957962036,
				0.42310720682144165,
				0.7504616379737854
			],
			"min":[
				-0.36698704957962036,
				0.37934213876724243,
				0.6791388988494873
			],
			"type":"VEC3"
		},
		{
			"bufferView":22,
			"componentType":5126,
			"count":768,
			"type":"VEC2"
		},
		{
			"bufferView":23,
			"componentType":5126,
			"count":768,
			"type":"VEC3"
		},
		{
			"bufferView":24,
			"componentType":5123,
			"count":1152,
			"type":"SCALAR"
		},
		{
			"bufferView":25,
			"componentType":5123,
			"count":196,
			"normalized":true,
			"type":"VEC4"
		},
		{
			"bufferView":26,
			"componentType":5126,
			"count":196,
			"max":[
				0.6994256973266602,
				-0.11832908540964127,
				0.840083122253418
			],
			"min":[
				-0.6994256973266602,
				-0.27237799763679504,
				0.6685723066329956
			],
			"type":"VEC3"
		},
		{
			"bufferView":27,
			"componentType":5126,
			"count":196,
			"type":"VEC2"
		},
		{
			"bufferView":28,
			"componentType":5126,
			"count":196,
			"type":"VEC3"
		},
		{
			"bufferView":29,
			"componentType":5123,
			"count":1152,
			"type":"SCALAR"
		},
		{
			"bufferView":30,
			"componentType":5126,
			"count":559,
			"max":[
				0.9999997019767761,
				1,
				0.9999993443489075
			],
			"min":[
				-0.9999990463256836,
				-1,
				-1
			],
			"type":"VEC3"
		},
		{
			"bufferView":31,
			"componentType":5126,
			"count":559,
			"type":"VEC2"
		},
		{
			"bufferView":32,
			"componentType":5126,
			"count":559,
			"type":"VEC3"
		},
		{
			"bufferView":33,
			"componentType":5123,
			"count":2880,
			"type":"SCALAR"
		},
		{
			"bufferView":34,
			"componentType":5126,
			"count":625,
			"max":[
				4.795594692230225,
				0.7074207067489624,
				11.445358276367188
			],
			"min":[
				-4.722686290740967,
				-2.8985142707824707,
				-0.46617794036865234
			],
			"type":"VEC3"
		},
		{
			"bufferView":35,
			"componentType":5126,
			"count":625,
			"type":"VEC2"
		},
		{
			"bufferView":36,
			"componentType":5126,
			"count":625,
			"type":"VEC3"
		},
		{
			"bufferView":37,
			"componentType":5123,
			"count":3264,
			"type":"SCALAR"
		},
		{
			"bufferView":38,
			"componentType":5126,
			"count":1178,
			"max":[
				8.098153114318848,
				0.17340707778930664,
				9.586274147033691
			],
			"min":[
				-8.098153114318848,
				-0.7545320987701416,
				5.733829498291016
			],
			"type":"VEC3"
		},
		{
			"bufferView":39,
			"componentType":5126,
			"count":1178,
			"type":"VEC2"
		},
		{
			"bufferView":40,
			"componentType":5126,
			"count":1178,
			"type":"VEC3"
		},
		{
			"bufferView":41,
			"componentType":5123,
			"count":6144,
			"type":"SCALAR"
		},
		{
			"bufferView":42,
			"componentType":5126,
			"count":1184,
			"max":[
				3.458254814147949,
				-1.7609686851501465,
				5.102766036987305
			],
			"min":[
				-3.458254814147949,
				-3.8400707244873047,
				-1.0095916986465454
			],
			"type":"VEC3"
		},
		{
			"bufferView":43,
			"componentType":5126,
			"count":1184,
			"type":"VEC2"
		},
		{
			"bufferView":44,
			"componentType":5126,
			"count":1184,
			"type":"VEC3"
		},
		{
			"bufferView":45,
			"componentType":5123,
			"count":6144,
			"type":"SCALAR"
		}
	],
	"bufferViews":[
		{
			"buffer":0,
			"byteLength":82504,
			"byteOffset":0,
			"target":34962
		},
		{
			"buffer":0,
			"byteLength":123756,
			"byteOffset":82504,
			"target":34962
		},
		{
			"buffer":0,
			"byteLength":82504,
			"byteOffset":206260,
			"target":34962
		},
		{
			"buffer":0,
			"byteLength":123756,
			"byteOffset":288764,
			"target":34962
		},
		{
			"buffer":0,
			"byteLength":119808,
			"byteOffset":412520,
			"target":34963
		},
		{
			"buffer":0,
			"byteLength":712,
			"byteOffset":532328,
			"target":34962
		},
		{
			"buffer":0,
			"byteLength":1068,
			"byteOffset":533040,
			"target":34962
		},
		{
			"buffer":0,
			"byteLength":712,
			"byteOffset":534108,
			"target":34962
		},
		{
			"buffer":0,
			"byteLength":1068,
			"byteOffset":534820,
			"target":34962
		},
		{
			"buffer":0,
			"byteLength":960,
			"byteOffset":535888,
			"target":34963
		},
		{
			"buffer":0,
			"byteLength":6144,
			"byteOffset":536848,
			"target":34962
		},
		{
			"buffer":0,
			"byteLength":9216,
			"byteOffset":542992,
			"target":34962
		},
		{
			"buffer":0,
			"byteLength":6144,
			"byteOffset":552208,
			"target":34962
		},
		{
			"buffer":0,
			"byteLength":9216,
			"byteOffset":558352,
			"target":34962
		},
		{
			"buffer":0,
			"byteLength":2304,
			"byteOffset":567568,
			"target":34963
		},
		{
			"buffer":0,
			"byteLength":4192,
			"byteOffset":569872,
			"target":34962
		},
		{
			"buffer":0,
			"byteLength":6288,
			"byteOffset":574064,
			"target":34962
		},
		{
			"buffer":0,
			"byteLength":4192,
			"byteOffset":580352,
			"target":34962
		},
		{
			"buffer":0,
			"byteLength":6288,
			"byteOffset":584544,
			"target":34962
		},
		{
			"buffer":0,
			"byteLength":5472,
			"byteOffset":590832,
			"target":34963
		},
		{
			"buffer":0,
			"byteLength":6144,
			"byteOffset":596304,
			"target":34962
		},
		{
			"buffer":0,
			"byteLength":9216,
			"byteOffset":602448,
			"target":34962
		},
		{
			"buffer":0,
			"byteLength":6144,
			"byteOffset":611664,
			"target":34962
		},
		{
			"buffer":0,
			"byteLength":9216,
			"byteOffset":617808,
			"target":34962
		},
		{
			"buffer":0,
			"byteLength":2304,
			"byteOffset":627024,
			"target":34963
		},
		{
			"buffer":0,
			"byteLength":1568,
			"byteOffset":629328,
			"target":34962
		},
		{
			"buffer":0,
			"byteLength":2352,
			"byteOffset":630896,
			"target":34962
		},
		{
			"buffer":0,
			"byteLength":1568,
			"byteOffset":633248,
			"target":34962
		},
		{
			"buffer":0,
			"byteLength":2352,
			"byteOffset":634816,
			"target":34962
		},
		{
			"buffer":0,
			"byteLength":2304,
			"byteOffset":637168,
			"target":34963
		},
		{
			"buffer":0,
			"byteLength":6708,
			"byteOffset":639472,
			"target":34962
		},
		{
			"buffer":0,
			"byteLength":4472,
			"byteOffset":646180,
			"target":34962
		},
		{
			"buffer":0,
			"byteLength":6708,
			"byteOffset":650652,
			"target":34962
		},
		{
			"buffer":0,
			"byteLength":5760,
			"byteOffset":657360,
			"target":34963
		},
		{
			"buffer":0,
			"byteLength":7500,
			"byteOffset":663120,
			"target":34962
		},
		{
			"buffer":0,
			"byteLength":5000,
			"byteOffset":670620,
			"target":34962
		},
		{
			"buffer":0,
			"byteLength":7500,
			"byteOffset":675620,
			"target":34962
		},
		{
			"buffer":0,
			"byteLength":6528,
			"byteOffset":683120,
			"target":34963
		},
		{
			"buffer":0,
			"byteLength":14136,
			"byteOffset":689648,
			"target":34962
		},
		{
			"buffer":0,
			"byteLength":9424,
			"byteOffset":703784,
			"target":34962
		},
		{
			"buffer":0,
			"byteLength":14136,
			"byteOffset":713208,
			"target":34962
		},
		{
			"buffer":0,
			"byteLength":12288,
			"byteOffset":727344,
			"target":34963
		},
		{
			"buffer":0,
			"byteLength":14208,
			"byteOffset":739632,
			"target":34962
		},
		{
			"buffer":0,
			"byteLength":9472,
			"byteOffset":753840,
			"target":34962
		},
		{
			"buffer":0,
			"byteLength":14208,
			"byteOffset":763312,
			"target":34962
		},
		{
			"buffer":0,
			"byteLength":12288,
			"byteOffset":777520,
			"target":34963
		}
	],
	"buffers":[
		{
			"byteLength":789808,
			"uri":"data:application/octet-stream;base64,"
		}
	]
}
